<svg width="14" height="14" viewBox="0 0 14 14" fill="none" xmlns="http://www.w3.org/2000/svg">
<path d="M12.6875 0H1.3125C0.590625 0 0 0.590625 0 1.3125V12.6875C0 13.4094 0.590625 14 1.3125 14H12.6875C13.4094 14 14 13.4094 14 12.6875V1.3125C14 0.590625 13.4094 0 12.6875 0ZM11.3391 9.8L10.059 9.81925C10.059 9.81925 9.7825 9.87438 9.422 9.625C8.94337 9.29688 8.49187 8.44112 8.13925 8.55312C7.784 8.66512 7.7945 9.43338 7.7945 9.43338C7.7945 9.43338 7.79713 9.59787 7.71488 9.6845C7.62738 9.77987 7.45238 9.79913 7.45238 9.79913H6.881C6.881 9.79913 5.6175 9.87613 4.5045 8.71588C3.29 7.45238 2.219 4.9455 2.219 4.9455C2.219 4.9455 2.156 4.781 2.22425 4.70225C2.30037 4.61212 2.506 4.60687 2.506 4.60687L3.87625 4.599C3.87625 4.599 4.00488 4.62088 4.09763 4.68913C4.17462 4.74425 4.21487 4.85013 4.21487 4.85013C4.21487 4.85013 4.43625 5.411 4.72938 5.91675C5.30075 6.90375 5.5685 7.11987 5.76275 7.01575C6.0445 6.86262 5.95962 5.61837 5.95962 5.61837C5.95962 5.61837 5.96488 5.16687 5.81787 4.96737C5.70325 4.81163 5.48712 4.76525 5.39437 4.75388C5.31738 4.7425 5.44338 4.56488 5.60787 4.4835C5.85375 4.36275 6.28863 4.35487 6.80312 4.36012C7.20213 4.36275 7.32025 4.38987 7.476 4.42575C7.94937 4.54038 7.7875 4.9805 7.7875 6.03662C7.7875 6.37613 7.72713 6.85125 7.97038 7.007C8.0745 7.07525 8.33087 7.0175 8.974 5.92725C9.27763 5.41013 9.50688 4.80375 9.50688 4.80375C9.50688 4.80375 9.55587 4.69438 9.63287 4.648C9.7125 4.60162 9.81925 4.61562 9.81925 4.61562L11.2604 4.60775C11.2604 4.60775 11.6926 4.55613 11.7635 4.753C11.837 4.95775 11.6025 5.43638 11.0145 6.22125C10.0494 7.50925 9.94 7.3885 10.7441 8.13225C11.5098 8.84363 11.6681 9.19013 11.6961 9.23388C12.0076 9.75888 11.3409 9.8 11.3409 9.8H11.3391Z" fill="#F857A6"/>
</svg>
